<?xml version="1.0" standalone="no"?>
<!DOCTYPE svg PUBLIC "-//W3C//DTD SVG 20010904//EN"
 "http://www.w3.org/TR/2001/REC-SVG-20010904/DTD/svg10.dtd">
<svg version="1.0" xmlns="http://www.w3.org/2000/svg"
 width="512.000000pt" height="512.000000pt" viewBox="0 0 512.000000 512.000000"
 preserveAspectRatio="xMidYMid meet">

<g transform="translate(0.000000,512.000000) scale(0.100000,-0.100000)"
fill="#000000" stroke="none">
<path d="M2495 4191 c-16 -10 -131 -121 -255 -245 l-225 -226 48 -47 47 -48
190 190 190 190 0 -913 0 -912 65 0 65 0 0 912 0 913 188 -188 c103 -103 192
-187 198 -187 5 0 30 20 54 45 l44 45 -229 230 c-127 127 -244 237 -261 245
-43 20 -83 19 -119 -4z"/>
<path d="M1461 3189 c-82 -24 -150 -96 -171 -181 -7 -29 -10 -284 -8 -793 3
-719 4 -752 22 -789 25 -50 72 -97 122 -122 38 -18 74 -19 1104 -22 747 -2
1080 0 1116 8 68 14 124 57 160 122 l29 53 0 775 c0 750 -1 776 -20 815 -10
21 -37 56 -58 77 -65 63 -98 68 -444 68 l-303 0 0 -65 0 -64 315 -3 315 -3 32
-33 33 -32 0 -760 0 -760 -33 -32 -32 -33 -1080 0 -1080 0 -32 33 -33 32 0
760 0 760 33 32 32 33 315 3 315 3 0 64 0 65 -307 -1 c-170 0 -323 -5 -342
-10z"/>
</g>
</svg>
