<svg xmlns="http://www.w3.org/2000/svg" width="78" height="69" fill="none" viewBox="0 0 78 69">
  <g clip-path="url(#a)">
    <path fill="#4BC0C8" d="M59.192 69 5.899 31.496a13.83 13.83 0 0 1-4.326-4.947 13.87 13.87 0 0 1 0-12.78 13.83 13.83 0 0 1 4.326-4.946L18.808-.219 72.1 37.29a13.834 13.834 0 0 1 4.323 4.948A13.873 13.873 0 0 1 72.1 59.963L59.192 69ZM18.802 5.813l-10.06 7.056a8.893 8.893 0 0 0-2.784 3.181A8.918 8.918 0 0 0 8.74 27.453L59.207 62.97l10.062-7.053a8.898 8.898 0 0 0 2.781-3.182 8.923 8.923 0 0 0-2.781-11.402L18.803 5.812Z"/>
    <path fill="#02819B" d="M18.754 62.935 8.707 55.863a8.899 8.899 0 0 1-2.782-3.182 8.923 8.923 0 0 1 2.782-11.402l26.008-18.23-4.29-3.01L5.894 37.231a13.83 13.83 0 0 0-4.326 4.946 13.87 13.87 0 0 0 0 12.78 13.83 13.83 0 0 0 4.326 4.946l12.874 9.062 15.927-11.173-4.29-3.02-11.651 8.162ZM72.125 8.876 59.245-.186l-15.94 11.183 4.29 3.02L59.24 5.865l10.053 7.072a8.897 8.897 0 0 1 2.781 3.182 8.923 8.923 0 0 1-2.781 11.402L43.28 45.736l4.29 3.02 24.536-17.208a13.83 13.83 0 0 0 4.325-4.946 13.87 13.87 0 0 0 0-12.78 13.83 13.83 0 0 0-4.325-4.946h.02Z"/>
    <path fill="#02819B" d="M29.228 20.848 8.96 35.065l2.826 4.049 20.267-14.217-2.825-4.049Zm37.442 8.479-9.872 6.93 2.823 4.047 10.238-7.189a246.155 246.155 0 0 1-3.189-3.788Z"/>
  </g>
  <defs>
    <clipPath id="a">
      <path fill="#fff" d="M0 0h78v69H0z"/>
    </clipPath>
  </defs>
</svg>
