<svg xmlns="http://www.w3.org/2000/svg" xml:space="preserve" width="7.83333in" height="7.83333in" style="shape-rendering:geometricPrecision; text-rendering:geometricPrecision; image-rendering:optimizeQuality; fill-rule:evenodd; clip-rule:evenodd" viewBox="0 0 7.83333 7.83333" xmlns:xlink="http://www.w3.org/1999/xlink">
<defs>
<style type="text/css">
   
    .fil8 {fill:#87B2B6}
    .fil5 {fill:darkgray}
    .fil2 {fill:#ADB277}
    .fil9 {fill:#B2EBF2}
    .fil6 {fill:#C0A964}
    .fil4 {fill:#E0E0E0}
    .fil1 {fill:#E6EE9C}
    .fil0 {fill:#F48B76}
    .fil7 {fill:#FFE082}
    .fil3 {fill:#413B32;fill-rule:nonzero}
   
  </style>
</defs>
<g id="Layer_x0020_1">
<metadata id="CorelCorpID_0Corel-Layer"></metadata>
<circle class="fil0" cx="3.91667" cy="3.91667" r="3.91667" id="id_102" style="fill: rgb(255, 255, 255);"></circle>
<g id="_319089144">
<path id="_319090392" class="fil1" d="M4.57067 2.56302c0.179205,0.00835827 0.355232,0.0850866 0.485594,0.228205 0.130362,0.143118 0.190374,0.325524 0.182016,0.504728 -0.00835827,0.179209 -0.0850906,0.355232 -0.228209,0.485594 -0.143114,0.130358 -0.32552,0.190378 -0.504728,0.18202 -0.179205,-0.00835827 -0.355232,-0.0850945 -0.485598,-0.228209 -0.130358,-0.143118 -0.190374,-0.325524 -0.182016,-0.504728 0.00835827,-0.179209 0.0850945,-0.355236 0.228209,-0.485594 0.143118,-0.130362 0.325524,-0.190378 0.504732,-0.182016zm-2.35122 1.288c-0.000165354,0.000311024 -0.000330709,0.00061811 -0.000496063,0.000929134 -0.0524921,0.0988307 -0.102681,0.201858 -0.150311,0.309272 -8.26772e-005,0.00023622 -0.000165354,0.000476378 -0.000251969,0.000712598 0.0479528,-0.10815 0.0983858,-0.211724 0.151059,-0.310913zm0.563043 -0.820339c-0.0853189,0.0970433 -0.168122,0.200728 -0.247811,0.311492 0.000370079,-0.000515748 0.000744094,-0.0010315 0.00111417,-0.00154724 0.0796024,-0.110681 0.161969,-0.213874 0.246551,-0.310075l0.000145669 0.000129921zm0.00362205 -0.00411417c-0.00110236,0.00144488 -0.00225984,0.00285827 -0.00347638,0.00424016l-0.000145669 -0.000125984c0.00120866,-0.00137402 0.00241339,-0.00274016 0.00362205,-0.00411417zm-0.722268 1.14565c0.00150787,-0.00342913 0.00302756,-0.00685827 0.00454331,-0.0102795 -0.00127559,0.00356299 -0.00279921,0.00699606 -0.00454331,0.0102795zm0.413563 0.968012l0.370531 0.406787 0.185327 0.203461c0.128071,-0.032689 0.251154,-0.0689173 0.369441,-0.108366 0.00343307,-0.00143307 0.00699606,-0.00262992 0.0106654,-0.00356693 0.114563,-0.0384882 0.224622,-0.0800039 0.330339,-0.124268 0.10998,-0.0460866 0.215453,-0.0952244 0.316587,-0.147079 0.0719449,-0.0368858 0.141461,-0.0750039 0.208638,-0.114248 0.000255906,-0.000149606 0.000507874,-0.000299213 0.000767717,-0.000448819 0.118917,-0.0696024 0.230945,-0.143039 0.33648,-0.219661l-0.000110236 -0.00015748c0.00149213,-0.00108268 0.00301181,-0.0021063 0.00455118,-0.00307087 0.596846,-0.434575 0.985476,-0.971146 1.23835,-1.49293 0.396157,-0.817413 0.46076,-1.59777 0.470228,-1.89584 -0.297657,-0.0183228 -1.08065,-0.0266378 -1.93138,0.291713 -0.543055,0.203213 -1.11347,0.540217 -1.60171,1.09402 0.024685,-0.0323386 0.0204567,-0.0787402 -0.010563,-0.106008 -0.0218425,-0.0192087 -0.0514016,-0.0240197 -0.0770709,-0.015189 -0.00635039,0.00194488 -0.0127992,0.00394488 -0.0193465,0.00600787 -0.178996,0.0563543 -0.43085,0.157142 -0.674142,0.328102 -0.255583,0.179598 -0.500839,0.436075 -0.641827,0.798886l-0.000232283 -9.05512e-005c-0.015622,0.0402126 0.00431102,0.0854882 0.0445236,0.10111 0.00748819,0.00290945 0.0151535,0.00458661 0.0227717,0.00512598l0.451799 0.0557323 0.103276 0.0127402 -1.1811e-005 8.66142e-005c0.0330394,0.0040748 0.0638031,-0.0131181 0.0785551,-0.0408583 -0.0502913,0.11411 -0.0978189,0.233291 -0.142291,0.357768l0.185319 0.203453 0.370535 0.406791zm-0.210362 -1.68089c-0.114571,0.179941 -0.221744,0.376673 -0.319638,0.591732l-0.000248031 -3.14961e-005 -0.399035 -0.0492283c0.131677,-0.281083 0.334965,-0.48628 0.546228,-0.63474 0.130583,-0.0917598 0.264469,-0.162004 0.386748,-0.21522 0.00038189,-0.000161417 0.000755906,-0.000330709 0.0011378,-0.000492126 -0.0744961,0.0973307 -0.146374,0.199898 -0.215193,0.30798z" style="fill: rgb(213, 140, 250);"></path>
<path id="_319090584" class="fil2" d="M6.18416 1.63502c-0.0219449,0.517185 -0.282315,3.01111 -3.24356,4.01372l0 7.87402e-006 0.0926654 0.101724c0.128071,-0.032689 0.251154,-0.0689173 0.369441,-0.108366 0.00343701,-0.00143701 0.00699606,-0.00262992 0.0106654,-0.00356693 0.114563,-0.0384921 0.224622,-0.0800039 0.330339,-0.124264 0.10998,-0.0460906 0.215453,-0.0952323 0.316587,-0.147083 0.0719449,-0.0368858 0.141461,-0.0750039 0.208634,-0.114248 0.000259843,-0.000149606 0.000511811,-0.000299213 0.000771654,-0.000448819 0.118917,-0.0696024 0.230945,-0.143039 0.33648,-0.219661l-0.000110236 -0.00015748c0.00149213,-0.00108268 0.00300787,-0.0021063 0.00455512,-0.00306693 0.596843,-0.434579 0.985472,-0.971146 1.23835,-1.49293 0.396157,-0.817413 0.460764,-1.59777 0.470228,-1.89585 -0.037563,-0.00231102 -0.082874,-0.00446063 -0.135051,-0.00581496z" style="fill: rgb(219, 38, 255);"></path>
<path id="_319090200" class="fil3" d="M6.31921 1.64084c-0.297657,-0.0183228 -1.08065,-0.0266378 -1.93138,0.291713 -0.921835,0.344957 -1.92249,1.07541 -2.46627,2.59743l0.555854 0.610244 0.555858 0.610248c1.56603,-0.399744 2.38645,-1.32807 2.81571,-2.21379 0.396157,-0.817413 0.46076,-1.59777 0.470228,-1.89584zm-1.98567 0.145602c0.955094,-0.357402 1.82948,-0.31585 2.06542,-0.295984l0.000114173 0c0.0431417,0.000295276 0.0778858,0.0355039 0.0775906,0.0786457l-0.000244094 4.72441e-005c-0.00155118,0.227386 -0.0383071,1.10935 -0.487016,2.03518 -0.449386,0.927236 -1.31025,1.8992 -2.95776,2.30733 -0.0284213,0.00946457 -0.0610039,0.00205906 -0.0824764,-0.0215118l3.93701e-006 -3.93701e-006 -0.58726 -0.64472 -0.585965 -0.643303c-0.0196063,-0.0205236 -0.0272913,-0.0510433 -0.0173189,-0.0796929l0.000185039 6.29921e-005c0.559197,-1.60642 1.60849,-2.37448 2.57472,-2.73605z"></path>
<path id="_319090416" class="fil3" d="M5.05626 2.79123c0.130362,0.143118 0.190374,0.325524 0.182016,0.504728 -0.00835827,0.179209 -0.0850906,0.355232 -0.228209,0.485594 -0.143114,0.130358 -0.32552,0.190378 -0.504728,0.18202 -0.179205,-0.00835827 -0.355232,-0.0850945 -0.485598,-0.228209 -0.130358,-0.143118 -0.190374,-0.325524 -0.182016,-0.504728 0.00835827,-0.179209 0.0850945,-0.355236 0.228209,-0.485594 0.143118,-0.130362 0.325524,-0.190378 0.504732,-0.182016 0.179205,0.00835827 0.355232,0.0850866 0.485594,0.228205zm0.0259488 0.497449c0.00649606,-0.13928 -0.0401378,-0.281035 -0.141445,-0.392248 -0.101299,-0.111217 -0.238098,-0.170843 -0.377378,-0.177339 -0.13928,-0.00649606 -0.281039,0.0401417 -0.392252,0.141441 -0.111213,0.101299 -0.170846,0.238102 -0.177343,0.377382 -0.00649606,0.13928 0.0401417,0.281031 0.141445,0.392248 0.101303,0.111213 0.238102,0.170843 0.377382,0.177339 0.13928,0.00649606 0.281035,-0.0401417 0.392248,-0.141441 0.111213,-0.101299 0.170843,-0.238102 0.177343,-0.377382z"></path>
<path id="_319089792" class="fil3" d="M1.54813 4.00181l0.399283 0.0492598c0.0978937,-0.215059 0.205067,-0.411791 0.319638,-0.591732 0.0688189,-0.108083 0.140697,-0.21065 0.215193,-0.30798 -0.122583,0.0532717 -0.256898,0.123669 -0.387886,0.215713 -0.211264,0.148461 -0.414551,0.353657 -0.546228,0.63474zm0.437177 0.211177l-0.555075 -0.0684724c-0.00761811,-0.00053937 -0.0152835,-0.00221654 -0.0227717,-0.00512598 -0.0402126,-0.015622 -0.0601457,-0.0608976 -0.0445236,-0.10111l0.000232283 9.05512e-005c0.140988,-0.362811 0.386244,-0.619287 0.641827,-0.798886 0.252193,-0.177213 0.513583,-0.279028 0.693488,-0.33411 0.0256693,-0.00883071 0.0552283,-0.00401969 0.0770709,0.015189 0.0324016,0.0284843 0.0355709,0.0778504 0.00708661,0.110248l-0.000291339 -0.000255906c-0.134157,0.152591 -0.262752,0.322772 -0.383571,0.512524 -0.119677,0.187969 -0.230508,0.393472 -0.330134,0.618146 -0.011815,0.0340512 -0.0461378,0.056437 -0.0833504,0.0518504l1.1811e-005 -8.66142e-005z"></path>
<path id="_319089696" class="fil3" d="M3.37132 6.27554l-0.0165039 -0.559024 -9.05512e-005 3.93701e-006c-0.0011063,-0.0374882 0.0243858,-0.0695827 0.0593976,-0.0781693 0.232969,-0.0782795 0.447894,-0.169492 0.646177,-0.271157 0.200173,-0.10263 0.381583,-0.214823 0.546004,-0.334201l-0.000228346 -0.000314961c0.0349094,-0.0253465 0.0837638,-0.0175945 0.10911,0.0173189 0.0170945,0.0235472 0.0191299,0.053437 0.00793701,0.0781772 -0.0715945,0.174 -0.197295,0.424764 -0.397201,0.659346 -0.20261,0.237756 -0.480807,0.458063 -0.855157,0.564673l6.69291e-005 0.00023622c-0.0414921,0.011811 -0.0847126,-0.012248 -0.0965236,-0.0537402 -0.00220079,-0.00772835 -0.00315748,-0.0155157 -0.00298819,-0.0231496zm0.141181 -0.506228l0.011878 0.402126c0.29211,-0.104945 0.51535,-0.28824 0.682827,-0.484768 0.103835,-0.121846 0.186429,-0.249024 0.250882,-0.366114 -0.103843,0.0651063 -0.212654,0.12713 -0.326673,0.185587 -0.189823,0.0973268 -0.395673,0.18572 -0.618913,0.263169z"></path>
<path id="_319089552" class="fil3" d="M1.87662 4.94317l0.741067 0.813579c0.0143031,0.0157047 0.0338346,0.0241378 0.0537677,0.0250709 0.0194449,0.000905512 0.0391772,-0.00533465 0.0547087,-0.0189213 0.000692913,-0.00065748 0.00140551,-0.00129134 0.00211811,-0.0019252 0.0150945,-0.0142205 0.0232087,-0.0333622 0.024122,-0.0528858 0.000929134,-0.0199331 -0.00565354,-0.0401614 -0.0199567,-0.0558661l-3.93701e-006 -3.93701e-006 -0.741063 -0.813579c-0.0143031,-0.0157047 -0.0338386,-0.0241378 -0.0537717,-0.0250669 -0.0199331,-0.000929134 -0.0401654,0.00564961 -0.0558701,0.0199528l3.93701e-006 3.93701e-006 -0.000322835 0.000291339c-0.0155039,0.0142756 -0.0238346,0.0336811 -0.0247559,0.0534803l-0.00030315 -1.5748e-005c-0.00092126,0.0197402 0.00575984,0.0399646 0.0202598,0.0558858zm0.625571 0.91878l-0.741063 -0.813583c-0.0431732,-0.0473937 -0.0630236,-0.108339 -0.0602283,-0.168335l-0.000307087 -1.1811e-005c0.00275591,-0.0590236 0.0276654,-0.117067 0.0740748,-0.160264 0.0012126,-0.0011811 0.00246457,-0.0023189 0.00376378,-0.0034252 0.0473228,-0.042185 0.107437,-0.0615827 0.166457,-0.0588307 0.0598071,0.00279134 0.118618,0.0283307 0.161984,0.075937l0.741067 0.813579 0 3.93701e-006c0.0433622,0.0476102 0.0633228,0.108539 0.0605315,0.168346 -0.00277165,0.0594646 -0.0280433,0.117933 -0.075122,0.161224l-0.000818898 0.000767717 -3.93701e-006 -3.93701e-006c-0.0476102,0.0433661 -0.108543,0.0633228 -0.16835,0.0605315 -0.0598071,-0.0027874 -0.118614,-0.0283268 -0.161984,-0.075937z"></path>
<path id="_319089576" class="fil3" d="M2.32448 6.02343c-0.0466614,0.0377795 -0.40315,0.305953 -0.87202,0.0836417l0.0332283 -0.0705472 -0.0334685 0.0705866c-0.0211457,-0.0100276 -0.0357087,-0.0283268 -0.0416575,-0.0491929 -0.183343,-0.511531 0.158953,-0.848406 0.170748,-0.859831l-3.93701e-006 -7.87402e-006 0.000240157 -0.00023622 -0.000125984 -0.000125984c0.00127953,-0.00124016 0.00259843,-0.00242126 0.00393701,-0.00355906 0.0492165,-0.0473307 0.101043,-0.0832835 0.154106,-0.109201 0.0590551,-0.0288386 0.119323,-0.0448937 0.179008,-0.0500669l-2.3622e-005 -0.000259843c0.033815,-0.00291732 0.0644528,0.0161693 0.0777913,0.045374 0.000984252,0.0016811 0.002,0.00328346 0.00305118,0.00478346 0.0012126,0.00174016 0.00333858,0.00428346 0.00640157,0.00764567l0.47539 0.521906c0.00193307,0.00212205 0.00372835,0.00392913 0.00536614,0.00539764 0.00251575,0.00226378 0.00442913,0.00387795 0.00573622,0.00483465l0.000240157 -3.54331e-005c0.0267323,0.0196417 0.0373307,0.0530866 0.0291929,0.0832992 -0.011311,0.0564646 -0.0326654,0.112382 -0.0655827,0.166035 -0.0313189,0.0510354 -0.0730787,0.100043 -0.126579,0.145457l0.000110236 0.000133858c-0.00165354,0.00140551 -0.00335039,0.00272835 -0.00508661,0.0039685zm-0.775929 -0.0441654c0.370902,0.158543 0.643209,-0.0487087 0.67635,-0.0757008 0.00114961,-0.0011063 0.00233465,-0.0021811 0.00357087,-0.00322835l0.000169291 8.66142e-005c0.0402953,-0.0341969 0.0713898,-0.0705157 0.0943307,-0.107906 0.0160354,-0.0261299 0.0281063,-0.0527874 0.0365945,-0.0795866l-0.469366 -0.515295 -0.00105906 -0.00117717c-0.0271732,0.00588189 -0.0545039,0.0152638 -0.0816693,0.0285315 -0.0382441,0.0186811 -0.0764252,0.045374 -0.113685,0.0811693 -0.00113386,0.00124803 -0.00231496,0.00248031 -0.00354331,0.00367323l-0.000200787 -6.69291e-005c-0.000795276,0.000771654 -0.272996,0.259972 -0.141492,0.6695z"></path>
<path id="_319089408" class="fil4" d="M1.94716 4.05104c0.156063,-0.342925 0.336634,-0.640705 0.533941,-0.899189 -0.12228,0.0532165 -0.256165,0.123461 -0.386748,0.21522 -0.211264,0.148461 -0.414551,0.353657 -0.546228,0.63474l0.399035 0.0492283z"></path>
<path id="_319090128" class="fil4" d="M4.45753 5.32158c-0.27574,0.172398 -0.589043,0.324476 -0.94502,0.447941l0.0118701 0.401921c0.29211,-0.104945 0.51535,-0.28824 0.682827,-0.484768 0.103535,-0.121492 0.185949,-0.248283 0.250323,-0.365094z"></path>
<path id="_319090032" class="fil5" d="M4.45753 5.32158c-0.0689803,0.0431299 -0.140315,0.0849803 -0.214071,0.125433l-0.719228 0.719228 0.000149606 0.00519685c0.29211,-0.104937 0.51535,-0.288236 0.682831,-0.484768 0.103531,-0.121488 0.185941,-0.248283 0.250319,-0.365091z"></path>
<path id="_319088904" class="fil4" d="M2.36191 5.24543l-0.370531 -0.406791c-0.0143031,-0.0157047 -0.0338386,-0.0241378 -0.0537717,-0.0250669 -0.0199331,-0.000929134 -0.0401654,0.00564961 -0.0558661,0.0199567l-0.000322835 0.000291339c-0.0155039,0.0142756 -0.0238346,0.0336811 -0.0247559,0.0534803l-0.00030315 -1.5748e-005c-0.00092126,0.0197402 0.00575984,0.0399646 0.0202598,0.0558858l0.105756 0.116102c0.000385827,0.000413386 0.000767717,0.000834646 0.00114567,0.00125591l0.634165 0.69622c0.0143031,0.0157047 0.0338346,0.0241378 0.0537677,0.0250709 0.0194449,0.000905512 0.0391772,-0.00533465 0.0547087,-0.0189213l0.00211811 -0.0019252c0.0150945,-0.0142205 0.0232087,-0.0333622 0.024122,-0.0528858 0.000929134,-0.0199331 -0.00565354,-0.0401614 -0.0199567,-0.0558661l-0.370535 -0.406791z"></path>
<path id="_319089240" class="fil5" d="M2.45205 5.57491l0.165634 0.181839c0.0143071,0.0157047 0.0338386,0.0241378 0.0537717,0.0250709 0.0194449,0.000905512 0.0391772,-0.00533465 0.0547126,-0.0189213l0.00211811 -0.0019252c0.0150906,-0.0142205 0.0232047,-0.0333661 0.0241181,-0.0528858 0.000929134,-0.0199331 -0.00564961,-0.0401614 -0.0199567,-0.0558661l-0.170512 -0.187197 -0.109886 0.109886z"></path>
<path id="_319088664" class="fil6" d="M2.2359 5.65373c-0.0313189,0.0510315 -0.0730827,0.100039 -0.126587,0.145457l0.000114173 0.000133858c-0.00165354,0.00140551 -0.00335039,0.00272835 -0.00508661,0.0039685 -0.0355157,0.0287598 -0.250563,0.191016 -0.558051,0.168807 0.000740157,0.00238583 0.00149606,0.00477559 0.00226772,0.00716929 0.370898,0.158543 0.643205,-0.0487047 0.676346,-0.0757047 0.00114961,-0.00110236 0.00233465,-0.00217717 0.00357087,-0.00322835l0.000169291 9.44882e-005c0.0402953,-0.0342008 0.0713898,-0.0705197 0.0943307,-0.107909 0.0160354,-0.0261299 0.0281063,-0.0527835 0.0365945,-0.0795906l-0.0975709 -0.107118c-0.00772441,0.0161378 -0.0164094,0.032126 -0.0260984,0.0479213z"></path>
<path id="_319089168" class="fil7" d="M2.10931 5.79919c0.0535039,-0.0454173 0.0952677,-0.0944252 0.126587,-0.145457 0.00968898,-0.0157953 0.018374,-0.0317835 0.0260984,-0.0479213l-0.371795 -0.408173 -0.00105906 -0.00117717c-0.0271732,0.00588583 -0.0545079,0.0152638 -0.0816693,0.0285276 -0.0382441,0.018685 -0.0764252,0.045378 -0.113685,0.0811693 -0.00113386,0.00125591 -0.00231496,0.00248425 -0.00354331,0.0036811l-0.000200787 -7.08661e-005c-0.000787402,0.00076378 -0.269823,0.256949 -0.143756,0.662331 0.307488,0.0222087 0.522535,-0.140047 0.558051,-0.168807 0.00173622,-0.00124016 0.00343307,-0.00256299 0.00508661,-0.0039685l-0.000114173 -0.000133858z"></path>
<path id="_319088640" class="fil8" d="M5.02826 3.08594c-0.0083622,0.179205 -0.0850906,0.355228 -0.228209,0.485594 -0.141732,0.129098 -0.322004,0.189217 -0.499531,0.182236 0.0668583,0.0323425 0.139142,0.0503307 0.212106,0.0537362 0.139272,0.00649606 0.281035,-0.0401457 0.392244,-0.141441 0.111213,-0.101303 0.170846,-0.238106 0.177343,-0.377382 0.00417323,-0.0895079 -0.0135945,-0.180043 -0.0537126,-0.262831 0.000775591,0.0200315 0.000692913,0.0400787 -0.000240157,0.0600866z" style="fill: rgb(38, 154, 255);"></path>
<path id="_319089288" class="fil9" d="M4.80005 3.57153c0.143118,-0.130366 0.219846,-0.30639 0.228209,-0.485594 0.000933071,-0.0200079 0.00101575,-0.0400551 0.000240157,-0.0600866 -0.022311,-0.0460354 -0.0515276,-0.0896772 -0.0877283,-0.129421 -0.101303,-0.111217 -0.238102,-0.170843 -0.377382,-0.177343 -0.13928,-0.00649213 -0.281039,0.0401457 -0.392256,0.141437 -0.111209,0.101311 -0.170839,0.23811 -0.177339,0.37739 -0.00649606,0.13928 0.0401417,0.281035 0.141445,0.392248 0.0482323,0.0529528 0.104516,0.0942126 0.16528,0.123606 0.177528,0.00698031 0.357799,-0.0531378 0.499531,-0.182236z" style="fill: rgb(38, 233, 255);"></path>
</g>
</g>
</svg>